<svg xmlns="http://www.w3.org/2000/svg" width="512" height="512" viewBox="0 0 512 512" role="img" aria-label="Brasso">
  <rect width="512" height="512" rx="96" fill="#0f1512" />
  <g transform="translate(0 6)">
    <!-- Chope de bière, zone de sécurité maskable ~15% -->
    <path d="M176 150h150a20 20 0 0 1 20 20v192a28 28 0 0 1-28 28H184a28 28 0 0 1-28-28V170a20 20 0 0 1 20-20z" fill="#1f2a24" stroke="#57cc99" stroke-width="14" />
    <path d="M346 200h26a34 34 0 0 1 34 34v56a34 34 0 0 1-34 34h-26" fill="none" stroke="#57cc99" stroke-width="14" />
    <!-- Mousse -->
    <path d="M168 176c8-22 30-30 46-20 8-26 44-30 58-10 20-14 48 2 46 26z" fill="#e9f7ef" />
    <!-- Niveau -->
    <rect x="176" y="236" width="150" height="120" rx="10" fill="#57cc99" opacity="0.28" />
  </g>
</svg>
